<svg width="30" height="32" viewBox="0 0 30 32" fill="none" xmlns="http://www.w3.org/2000/svg">
<path d="M9.12501 20.5884V23.5C9.12501 28.1527 12.9098 32 17.5625 32C22.2152 32 26 28.1527 26 23.5V22.4676C28.137 22.0321 29.75 20.1385 29.75 17.875C29.75 15.2904 27.6471 13.1875 25.0625 13.1875C22.478 13.1875 20.375 15.2904 20.375 17.875C20.375 20.1385 21.9881 22.0321 24.125 22.4676V23.5C24.125 27.1182 21.1807 30.125 17.5625 30.125C13.9443 30.125 11 27.1182 11 23.5V20.5896C14.8261 19.8877 19.2417 15.1368 20.0061 10.6176C20.5073 7.64925 19.2688 5.273 16.625 4.08444V2.8125C16.625 1.26163 15.3634 0 13.8125 0C12.2616 0 11 1.26163 11 2.8125C11 4.36337 12.2616 5.625 13.8125 5.625H15.477C17.6341 6.42369 18.5408 8.03569 18.1567 10.3054C17.4984 14.201 13.1112 18.8125 10.0625 18.8125C6.64795 18.8125 1.90208 13.3901 1.87333 9.375C1.86051 7.58531 2.7982 6.30206 4.62289 5.625H6.31251C7.86339 5.625 9.12501 4.36337 9.12501 2.8125C9.12501 1.26163 7.86345 0 6.31251 0C4.76158 0 3.50001 1.26163 3.50001 2.8125V4.074C1.24483 5.08387 -0.00486079 6.97625 1.42093e-05 9.375C0.00957671 14.0759 4.88008 19.802 9.12501 20.5884ZM24.125 16.9375H26V18.8125H24.125V16.9375Z" fill="white"/>
</svg>
